<?xml version="1.0" encoding="UTF-8"?>
<svg xmlns="http://www.w3.org/2000/svg" version="1.1" viewBox="0 0 178.8 75.5">
  <defs>
    <style>
      .cls-1 {
        fill: #d9e3ea;
      }
    </style>
  </defs>
  <!-- Generator: Adobe Illustrator 28.7.9, SVG Export Plug-In . SVG Version: 1.2.0 Build 218)  -->
  <g>
    <g id="Layer_1">
      <g id="Layer_1-2" data-name="Layer_1">
        <g id="Group_1428">
          <path id="Path_94" class="cls-1" d="M.5,63c-.2-6.8,5.2-12.4,12-12.5h.5c4.4,0,8.6,2.3,10.9,6.1l-3.8,2.7c-1.4-2.6-4.1-4.3-7.1-4.3-4.4,0-7.5,3.3-7.5,8s3.2,8,7.6,8,5.3-1.4,7.4-4.2l3.6,2.6c-2.3,3.8-6.5,6.1-10.9,6.1-6.8,0-12.5-5.3-12.6-12.1v-.4"/>
          <path id="Path_95" class="cls-1" d="M26.4,75.1l9.8-24.3h5.5l9.8,24.3h-5.2l-1.8-4.8h-11.3l-1.8,4.8h-5.2.2ZM43.2,66.5l-4.2-10.6-4.3,10.6h8.5Z"/>
          <path id="Path_96" class="cls-1" d="M74,75.1h-17.9v-24.3h4.8v20.1h13.1v4.2Z"/>
          <path id="Path_97" class="cls-1" d="M75.8,63c-.2-6.8,5.2-12.4,11.9-12.5h.5c4.3,0,8.3,2.1,10.6,5.7l-3.8,2.7c-1.4-2.4-4-3.9-6.8-4-4.4,0-7.5,3.3-7.5,8s3.2,8,7.6,8,6.3-2.4,6.9-5h-7.4v-4.2h12.2v2c0,6.2-4.4,11.6-11.8,11.6-6.8,0-12.5-5.3-12.6-12.1v-.4"/>
          <path id="Path_98" class="cls-1" d="M102.6,75.1l9.8-24.3h5.5l9.8,24.3h-5.2l-1.8-4.8h-11.3l-1.8,4.8h-5.2.2ZM119.4,66.5l-4.2-10.6-4.3,10.6h8.5Z"/>
          <path id="Path_99" class="cls-1" d="M132.3,75.1v-24.3h10.7c5.3,0,8.7,3.1,8.7,7.8s-1.7,5.7-4.5,6.9l5.5,9.6h-5.3l-5-8.8h-5.3v8.8h-4.8,0ZM137.2,62.1h5.6c2.7,0,4-1.6,4-3.5s-1.4-3.6-4-3.6h-5.6v7.1Z"/>
          <path id="Path_100" class="cls-1" d="M160.4,50.8l6.1,10.2,6.2-10.2h5.6l-9.4,15.1v9.2h-4.8v-9.2l-9.4-15.1h5.8-.1Z"/>
        </g>
        <g id="Group_1429">
          <path id="Path_1505" class="cls-1" d="M120.3,9.9v24.9c-8.3-16.9-28.7-23.8-45.5-15.5-6.8,3.3-12.2,8.8-15.5,15.5V9.9h61.1,0Z"/>
          <rect id="Rectangle_803" class="cls-1" x="59.2" y="4.2" width="61.1" height="2.4"/>
          <rect id="Rectangle_804" class="cls-1" x="59.2" y=".2" width="61.1" height="1.5"/>
        </g>
      </g>
    </g>
  </g>
</svg>