<svg xmlns="http://www.w3.org/2000/svg" width="253.214" height="365.261" viewBox="0 0 253.214 365.261">
  <path id="Path_267" data-name="Path 267" d="M624.713,310.109c-11.261-27.991-27.887-48.522-49.415-61.022l-1.692-.983-9.539,9.538,2.16,1.781c16.212,13.375,28.514,34.838,36.565,63.791,7.57,27.225,11.408,61.114,11.408,100.728,0,82.761-16.885,181.416-97.323,181.416-45.742,0-76.065-30.391-90.127-90.331-1.076-4.587-2.077-9.457-2.974-14.475-3.963-22.174-5.973-47.95-5.973-76.61,0-4.737.056-9.476.167-14.085l.153-6.352-28.692,28.68.02,1.081c.579,31.676,4.212,59.669,10.8,83.2.892,3.181,1.839,6.3,2.815,9.27,9.732,29.536,24.742,51.958,44.615,66.646,18.836,13.921,42.118,20.98,69.2,20.98,39.1,0,69.733-14.994,91.05-44.565,23.037-31.956,34.718-80.693,34.718-144.857,0-45.959-6.033-84.259-17.932-113.834" transform="translate(-389.431 -248.104)" fill="#fff"/>
</svg>
