<svg xmlns="http://www.w3.org/2000/svg" width="237.853" height="373.619" viewBox="0 0 237.853 373.619">
  <g id="Group_1268" data-name="Group 1268" transform="translate(-755.806 -10111.434)">
    <path id="Path_268" data-name="Path 268" d="M86,706.663l-1.6-1.86-6.876,5.5,1.686,2c13.712,16.237,35.667,28.357,63.492,35.05l1.386.334,7.279-7.28-4.464-1.036c-26.782-6.216-47.842-17.524-60.9-32.7" transform="translate(678.281 9737.373)" fill="#fff"/>
    <path id="Path_269" data-name="Path 269" d="M335.308,255.346a136.63,136.63,0,0,0-30.333-38.807h.3l-5.664-4.53a132.72,132.72,0,0,0-17.022-11.581c-16.84-9.611-34.6-14.777-51.7-15.078l98.068-130.76H119.839v9.176H282.567L186.051,192.449l5.339-.207c33.164-1.284,61.4,6.827,83.916,24.111a110.584,110.584,0,0,1,16.621,15.762,120.243,120.243,0,0,1,22.848,41.047l1.289,3.931L336.169,257Z" transform="translate(657.49 10056.845)" fill="#fff"/>
  </g>
</svg>
