<svg xmlns="http://www.w3.org/2000/svg" width="769.662" height="108.314" viewBox="0 0 769.662 108.314">
  <g id="Group_341" data-name="Group 341" transform="translate(-675.17 -612.171)">
    <path id="Path_356" data-name="Path 356" d="M148.01,73.341c0-30.76,23.244-54.157,54-54.157A55.192,55.192,0,0,1,249.117,45.45l-16.5,11.774c-7.052-11.621-17.2-18.67-30.6-18.67-19.137,0-32.54,14.41-32.54,34.787,0,20.455,13.945,34.787,33.082,34.787,12.939,0,23.088-5.889,31.842-18.13l15.421,11.159c-10.152,17.043-28.2,26.342-47.264,26.342-30.6,0-54.544-23.4-54.544-54.157" transform="translate(527.16 592.987)" fill="#d9e3ea"/>
    <path id="Path_357" data-name="Path 357" d="M192.612,125.015,235.068,19.8h24.02l42.536,105.214H279.309l-7.747-20.608H222.75l-7.825,20.608Zm72.907-37.267-18.364-46.1-18.517,46.1Z" transform="translate(594.527 593.919)" fill="#d9e3ea"/>
    <path id="Path_358" data-name="Path 358" d="M321.465,125.015H243.911V19.8h20.917v87.162h56.638Z" transform="translate(672.01 593.919)" fill="#d9e3ea"/>
    <path id="Path_359" data-name="Path 359" d="M277.926,73.341c0-30.76,23.241-54.157,54-54.157,18.208,0,35.023,8.676,46.1,24.715l-16.5,11.776c-8.212-12.4-18.9-17.121-29.6-17.121-19.137,0-32.54,14.41-32.54,34.787,0,20.455,13.945,34.787,33.082,34.787,17.513,0,27.351-10.3,29.753-21.462H330.376V68.614h53a78.13,78.13,0,0,1,.384,8.445c0,27.04-19.059,50.439-51.29,50.439-30.68,0-54.541-23.4-54.541-54.157" transform="translate(723.387 592.987)" fill="#d9e3ea"/>
    <path id="Path_360" data-name="Path 360" d="M324.069,125.015,366.53,19.8h24.015l42.541,105.214H410.769l-7.75-20.608h-48.8l-7.825,20.608Zm72.91-37.267-18.364-46.1L360.1,87.748Z" transform="translate(793.082 593.919)" fill="#d9e3ea"/>
    <path id="Path_361" data-name="Path 361" d="M375.369,124.937V19.8h46.41c22.857,0,37.654,13.634,37.654,33.78,0,13.4-7.361,24.406-19.6,29.673l23.786,41.761H440.682L419.218,86.741H396.363v38.2Zm20.995-56.326h24.1c11.545,0,17.508-7.052,17.508-15.03,0-8.754-5.962-15.65-17.508-15.65h-24.1Z" transform="translate(870.566 593.919)" fill="#d9e3ea"/>
    <path id="Path_362" data-name="Path 362" d="M438.808,19.8l26.417,44.239L491.956,19.8h24.173l-40.6,65.469v39.745H454.689V85.27L413.86,19.8Z" transform="translate(928.703 593.919)" fill="#d9e3ea"/>
  </g>
</svg>
