<svg xmlns="http://www.w3.org/2000/svg" xmlns:xlink="http://www.w3.org/1999/xlink" width="399.096" height="405.351" viewBox="0 0 399.096 405.351">
  <defs>
    <linearGradient id="linear-gradient" x1="0.043" y1="0.702" x2="0.982" y2="0.782" gradientUnits="objectBoundingBox">
      <stop offset="0" stop-color="#ffc30c"/>
      <stop offset="0.389" stop-color="#ffd450"/>
      <stop offset="0.477" stop-color="#fff56e"/>
      <stop offset="0.556" stop-color="#ffc000"/>
      <stop offset="1" stop-color="#ffc30c"/>
    </linearGradient>
  </defs>
  <g id="Group_96" data-name="Group 96" transform="translate(-746 229)" opacity="0.3">
    <path id="Subtraction_1" data-name="Subtraction 1" d="M190.548,196.8a191.951,191.951,0,0,1-38.4-3.871,189.588,189.588,0,0,1-35.768-11.1,190.568,190.568,0,0,1-32.367-17.568,191.6,191.6,0,0,1-51.468-51.468A190.568,190.568,0,0,1,14.974,80.425a189.59,189.59,0,0,1-11.1-35.768A191.962,191.962,0,0,1,0,6.255C0,4.178.034,2.073.1,0,3.435,103.342,87.089,184.293,190.548,184.293S377.661,103.342,381,0c.068,2.094.1,4.2.1,6.255a191.956,191.956,0,0,1-3.871,38.4,189.589,189.589,0,0,1-11.1,35.768,190.567,190.567,0,0,1-17.568,32.367,191.6,191.6,0,0,1-51.468,51.468,190.567,190.567,0,0,1-32.367,17.568,189.589,189.589,0,0,1-35.768,11.1A191.953,191.953,0,0,1,190.548,196.8Z" transform="translate(755 -29.452)" opacity="0.2" fill="url(#linear-gradient)"/>
    <path id="Path_51" data-name="Path 51" d="M190.5,0C295.71,0,381,85.29,381,190.5c0,100.476-77.786,182.784-176.442,189.989-4.629.338-9.323.511-14.058.511C85.29,381,0,295.71,0,190.5S85.29,0,190.5,0Z" transform="translate(755 -220)" opacity="0.45"/>
  </g>
</svg>
